<?xml version="1.0" encoding="iso-8859-1"?>
<!-- Generator: Adobe Illustrator 18.0.0, SVG Export Plug-In . SVG Version: 6.00 Build 0)  -->
<!DOCTYPE svg PUBLIC "-//W3C//DTD SVG 1.1//EN" "http://www.w3.org/Graphics/SVG/1.1/DTD/svg11.dtd">
<svg version="1.1" id="Capa_1" xmlns="http://www.w3.org/2000/svg" xmlns:xlink="http://www.w3.org/1999/xlink" x="0px" y="0px"
	 viewBox="0 0 297 297" style="enable-background:new 0 0 297 297;" xml:space="preserve">
<g>
	<path d="M263.922,95.797c3.083,0.207,6.09,0.688,9.01,1.392l8.687-8.687c4.218-4.218,4.218-11.057,0-15.274
		c-4.219-4.216-11.055-4.216-15.273,0l-5.896,5.896L263.922,95.797z"/>
	<path d="M246.242,95.661l-9.864-47.349c-1.095-5.255-6.98-10.04-12.347-10.04H72.967c-5.367,0-11.252,4.785-12.347,10.04
		l-9.864,47.349H246.242z"/>
	<path d="M297,168.291v-18.63c0-20.196-16.523-36.72-36.72-36.72H36.72c-20.196,0-36.72,16.523-36.72,36.72v18.63
		c0,20.196,16.523,36.72,36.72,36.72H260.28C280.477,205.011,297,188.487,297,168.291z M55.687,184.019
		c-13.808,0-25.043-11.234-25.043-25.042c0-13.809,11.235-25.043,25.043-25.043s25.042,11.234,25.042,25.043
		C80.729,172.784,69.494,184.019,55.687,184.019z M185.625,167.616h-74.252c-4.771,0-8.641-3.868-8.641-8.64
		c0-4.771,3.869-8.641,8.641-8.641h74.252c4.771,0,8.64,3.869,8.64,8.641C194.265,163.748,190.396,167.616,185.625,167.616z
		 M241.311,184.019c-13.808,0-25.043-11.234-25.043-25.042c0-13.809,11.235-25.043,25.043-25.043s25.042,11.234,25.042,25.043
		C266.353,172.784,255.119,184.019,241.311,184.019z"/>
	<path d="M36.72,222.291c-10.651,0-20.583-3.112-28.958-8.456v16.813c0,15.483,12.596,28.08,28.08,28.08H56.97
		c15.484,0,28.08-12.597,28.08-28.08v-8.357H36.72z"/>
	<path d="M260.28,222.291h-48.332v8.357c0,15.483,12.596,28.08,28.08,28.08h21.128c15.484,0,28.08-12.597,28.08-28.08v-16.812
		C280.861,219.18,270.931,222.291,260.28,222.291z"/>
	<path d="M20.569,98.147c3.991-1.253,8.18-2.06,12.507-2.35l2.705-12.987l-9.583-9.583c-4.219-4.216-11.055-4.216-15.273,0
		c-4.218,4.218-4.218,11.057,0,15.274L20.569,98.147z"/>
</g>
<g>
</g>
<g>
</g>
<g>
</g>
<g>
</g>
<g>
</g>
<g>
</g>
<g>
</g>
<g>
</g>
<g>
</g>
<g>
</g>
<g>
</g>
<g>
</g>
<g>
</g>
<g>
</g>
<g>
</g>
</svg>
